<svg xmlns="http://www.w3.org/2000/svg" viewBox="0 0 461.7 79.6"><path d="M75.1 0v34.4q2.5-5.2 6.8-7.3 4.2-2 9.5-2 4.3 0 6.9 1 2.6 1.1 4.1 2.9 1.7 1.9 2.4 4.9.8 3 .8 8.1v26.9q0 4.2 1.5 5.7 1.4 1.5 4.9 1.5v2.1l-5.8-.3-7.4-.1q-3.9 0-7.5.2l-5.5.2v-2.1q3 0 4.2-1.5 1.2-1.5 1.2-5.7V37.8q0-2.5-.5-4.3-.5-1.9-1.9-3-1.3-1-3.8-1-2.7 0-5 1.4-2.2 1.5-3.5 4.1-1.4 2.6-1.4 6v27.9q0 4.2 1.2 5.7t4.2 1.5v2.1l-5.3-.3-7.1-.1-7.8.2-6 .2v-2.1q3.5 0 5-1.5 1.4-1.5 1.4-5.7V12q0-4.5-1.4-6.7-1.3-2.1-5-2.1V1.1q3.2.3 6.2.3 4.1 0 7.8-.3Q72 .7 75.1 0Zm-32 7h2.3l-.3 4.6-.1 6.9-.1 11.3h-2.3q-.4-5.2-2.4-10.1-2-4.9-5.7-8-3.6-3.2-8.9-3.2a11.6 11.6 0 0 0-7.9 2.7q-3.1 2.7-3.1 7.5 0 4 2 6.9 2 2.8 5.8 5.5l9.4 6.5q4.8 3.1 8.6 6.2t6.1 7q2.3 3.9 2.3 9.3 0 6.6-3.4 10.9-3.5 4.3-9.1 6.5-5.6 2.1-12.3 2.1-6.2 0-9.9-1.2t-6.2-2.5q-2.2-1.4-3.4-1.4-1 0-1.5 1.1-.4 1.1-.7 3.3H0l.3-5.6V65l.1-13.1h2.3q.4 6.6 2.3 12.4 1.8 5.7 5.7 9.2Q14.4 77 20.9 77q3.5 0 6.3-1.3 2.7-1.2 4.4-3.7 1.7-2.5 1.7-6.2 0-4.2-2-7.3-1.9-3.1-5.3-5.8-3.3-2.7-7.7-5.5-4.7-3.1-8.8-6.2-4.1-3.1-6.5-7.1-2.5-4-2.5-9.5 0-6.3 3.1-10.3Q6.8 10 12 8t11-2q5.9 0 9.1 1.3 3.2 1.2 5.5 2.6l2 1q.7.4 1.4.4 1 0 1.5-1.1.4-1.1.7-3.3ZM456 7h2.3l-.3 4.6-.1 6.9-.1 11.3h-2.3q-.4-5.2-2.4-10.1-2-4.9-5.7-8-3.6-3.2-8.9-3.2a11.6 11.6 0 0 0-7.9 2.7q-3.1 2.7-3.1 7.5 0 4 2 6.9 2 2.8 5.9 5.5l9.3 6.5q4.8 3.1 8.6 6.2t6.1 7q2.3 3.9 2.3 9.3 0 6.6-3.4 10.9-3.5 4.3-9.1 6.5-5.6 2.1-12.3 2.1-6.2 0-9.9-1.2t-6.2-2.5q-2.2-1.4-3.4-1.4-1 0-1.4 1.1-.5 1.1-.8 3.3h-2.3l.3-5.6V65l.1-13.1h2.3q.4 6.6 2.3 12.4 1.8 5.7 5.7 9.2 3.8 3.5 10.2 3.5 3.5 0 6.3-1.3 2.7-1.2 4.4-3.7 1.7-2.5 1.7-6.2 0-4.2-2-7.3-1.9-3.1-5.3-5.8-3.3-2.7-7.7-5.5-4.7-3.1-8.8-6.2-4.1-3.1-6.5-7.1-2.5-4-2.5-9.5 0-6.3 3.2-10.3 3.1-4.1 8.3-6 5.1-2 10.9-2 5.9 0 9.1 1.3 3.2 1.2 5.5 2.6l2 1q.7.4 1.4.4 1 0 1.4-1.1.5-1.1.8-3.3ZM346.3 42v26.9q0 4.2 1.3 5.7t4.5 1.5v2.1l-5.5-.3-7.1-.1q-3.6 0-7.1.2l-5.3.2v-2.1q2.7 0 3.8-1.5 1-1.5 1-5.7V37.8q0-2.5-.4-4.3-.4-1.9-1.6-3-1.1-1-3.4-1-2.6 0-4.8 1.5-2.2 1.5-3.6 4.1-1.3 2.7-1.3 6v27.8q0 4.2 1.1 5.7t3.7 1.5v2.1l-5-.3-6.8-.1-7.8.2-6 .2v-2.1q3.5 0 5-1.5 1.4-1.5 1.4-5.7V37.4q0-4.5-1.3-6.6-1.4-2.2-5.1-2.2v-2.1q3.2.3 6.2.3 4.2 0 7.9-.4 3.6-.3 6.7-1v9q2.4-5 6.5-7.1 4.1-2.2 9-2.2 4.2 0 6.8 1 2.6 1.1 4.2 2.9 1.6 1.9 2.3 5 .7 3 .7 8Zm-74.4 1.8V36q0-2.6-.8-4.6-.9-2.1-2.7-3.2-1.7-1.1-4.5-1.1-2 0-4 .5-2 .6-3.3 1.9 2.8 1 4.3 3 1.6 2.1 1.6 4.7 0 3.4-2.4 5.4-2.3 2-5.5 2-3.6 0-5.4-2.3-1.9-2.2-1.9-5.4 0-2.9 1.4-4.8 1.5-1.9 4.1-3.6 2.8-1.6 6.8-2.5 3.9-.9 8.5-.9t8.3 1q3.7.9 6.2 3.4 2.3 2.3 3 5.6.7 3.4.7 8.5v27.2q0 2.5.5 3.5.5.9 1.7.9.9 0 1.8-.5l1.8-1.2 1 1.7Q291 77 288.2 78q-2.7.9-6.1.9-3.7 0-5.9-1-2.2-1.1-3.1-2.9-1-1.8-1-4.2-2.4 3.8-5.8 6-3.4 2.1-8.3 2.1-4.5 0-7.5-1.7t-4.4-4.5q-1.4-2.9-1.4-6.3 0-4.3 2-7 1.9-2.7 5-4.4 3.1-1.7 6.6-2.8l6.6-2.2q3.1-1 5-2.5 2-1.4 2-3.7ZM195 26.5v2q-1.9.5-3.6 2.4-1.7 1.8-3.3 6.2l-14.6 41.3-3.3-.1-3.2.1-17.8-44.2q-1.6-3.9-3.1-4.8-1.6-.8-2.7-.8v-2.1l6.7.4 7.5.1 6.6-.1 6.4-.4v2.1q-2.1 0-3.8.2-1.6.2-2.2 1.3a2.6 2.6 0 0 0-.3 1.3 10 10 0 0 0 .5 2.6l11.7 31-1 1.4 7.9-21.9a24.6 24.6 0 0 0 1.6-7.9 11.3 11.3 0 0 0 0-1q-.3-3.4-2.2-5.2-1.9-1.7-5.1-1.9v-2l3.3.1 3.3.1 3 .1 4.2-.1 3.5-.2Zm23.3 14.9v26.5q0 4.8 2.3 6.5 2.4 1.7 7.1 1.7v2.1l-6.7-.3-9.2-.1-8.1.2-6.2.2v-2.1q3.5 0 5-1.5 1.4-1.5 1.4-5.7V37.4q0-4.5-1.3-6.6-1.4-2.2-5.1-2.2v-2.1q3.2.3 6.2.3 4.2 0 7.9-.4 3.6-.3 6.7-1v9.3q1.2-2.7 3.2-4.9t4.6-3.4q2.6-1.3 5.8-1.3 3.2 0 5.2 1.3 2 1.4 3 3.5.9 2.1.9 4.4 0 3.7-2.2 6-2.1 2.4-5.6 2.4-3.5 0-5.4-1.8-2-1.7-2-4.6 0-2.8 1.3-4.6 1.2-1.9 3.1-3.2-1.4-.4-2.8.1-1.9.3-3.6 1.5-1.7 1.3-2.9 3.1-1.2 1.9-1.9 4-.7 2.2-.7 4.2Zm158.1.6v26.9q0 4.2 1.5 5.7 1.4 1.5 4.9 1.5v2.1l-5.7-.3-7.5-.1q-3.6 0-7.1.2l-5.3.2v-2.1q2.7 0 3.8-1.5 1-1.5 1-5.7V37.8q0-2.5-.4-4.3-.5-1.9-1.8-3-1.2-1-3.8-1-2.6 0-4.8 1.6-2.2 1.6-3.6 4.3-1.3 2.7-1.4 6l-.5-6.1q2.7-6 7.2-8.1 4.4-2.1 9.5-2.1 4.2 0 6.8 1 2.6 1.1 4.2 2.9 1.6 1.9 2.3 5 .7 3 .7 8Zm-240-16.6v43.5q0 4.2 1.4 5.7 1.5 1.5 5 1.5v2.1l-5.6-.3-7.7-.1-7.9.2-6 .2v-2.1q3.5 0 5-1.5 1.4-1.5 1.4-5.7V37.4q0-4.5-1.3-6.6-1.4-2.2-5.1-2.2v-2.1q3.2.3 6.2.3 4.2 0 7.9-.4 3.6-.3 6.7-1Zm135.5 43V47.9q-.9 1.5-2.5 2.7L266 53q-1.8 1.3-3.4 2.8-1.7 1.5-2.7 3.7-1 2.2-1 5.3 0 3.9 1.7 5.8t4.5 1.9q2 0 3.6-1 1.7-.9 3.2-3.1ZM128.6.7q4.2 0 6.7 2 2.4 2.1 2.4 5.7t-2.4 5.7q-2.5 2-6.7 2t-6.6-2q-2.5-2.1-2.5-5.7t2.5-5.7q2.4-2 6.6-2Z" vector-effect="non-scaling-stroke"/></svg>