<svg width="153.5" height="67.004" viewBox="0 0 153.5 67.004" xmlns="http://www.w3.org/2000/svg"><g id="svgGroup" stroke-linecap="round" fill-rule="evenodd" font-size="9pt" stroke="#000" stroke-width="0.25mm" fill="black" style="stroke:#000;stroke-width:0.25mm;fill:black"><path d="M 34.1 47.504 L 34.1 67.004 L 26.1 67.004 L 26.1 47.504 L 0 47.504 L 0 45.404 L 32.5 0.004 L 34.1 0.004 L 34.1 40.804 L 35.3 40.804 Q 38 40.804 39.35 40.354 Q 40.7 39.904 41.2 38.854 Q 41.7 37.804 42 35.704 L 43.7 35.704 Q 43.7 44.104 44.1 48.004 Q 42.8 47.704 34.1 47.504 Z M 143.5 47.504 L 143.5 67.004 L 135.5 67.004 L 135.5 47.504 L 109.4 47.504 L 109.4 45.404 L 141.9 0.004 L 143.5 0.004 L 143.5 40.804 L 144.7 40.804 Q 147.4 40.804 148.75 40.354 Q 150.1 39.904 150.6 38.854 Q 151.1 37.804 151.4 35.704 L 153.1 35.704 Q 153.1 44.104 153.5 48.004 Q 152.2 47.704 143.5 47.504 Z M 78.2 0.004 Q 85.2 0.004 90.7 3.254 Q 96.2 6.504 99.3 12.504 Q 102.4 18.504 102.4 26.304 Q 102.4 34.304 99.2 40.654 Q 96 47.004 90.25 50.654 Q 84.5 54.304 77.1 54.304 Q 70.2 54.304 64.7 51.054 Q 59.2 47.804 56.05 41.804 Q 52.9 35.804 52.9 27.904 Q 52.9 20.004 56.05 13.654 Q 59.2 7.304 64.95 3.654 Q 70.7 0.004 78.2 0.004 Z M 77.3 1.804 Q 73 1.804 69.65 4.854 Q 66.3 7.904 64.45 13.754 Q 62.6 19.604 62.6 27.604 Q 62.6 40.304 66.9 46.404 Q 71.2 52.504 78 52.504 Q 82.3 52.504 85.65 49.404 Q 89 46.304 90.85 40.454 Q 92.7 34.604 92.7 26.604 Q 92.7 14.004 88.4 7.904 Q 84.1 1.804 77.3 1.804 Z M 5.9 40.804 L 26.1 40.804 L 26.1 12.204 L 5.9 40.804 Z M 115.3 40.804 L 135.5 40.804 L 135.5 12.204 L 115.3 40.804 Z" vector-effect="non-scaling-stroke"/></g></svg>