<svg xmlns="http://www.w3.org/2000/svg" viewBox="0 0 10.28 17.6"><style>@media (prefers-color-scheme:dark){path{fill:#fff;stroke:#fff}}</style><path id="a" fill-rule="evenodd" stroke="#000" stroke-linecap="round" stroke-width=".94" d="M8.9.17h.56l-.06.97q-.04.57-.05 1.5l-.01 2.43h-.56q-.07-1.15-.5-2.2-.43-1.07-1.26-1.74Q6.19.46 4.85.46q-1.27 0-2.1.77-.83.77-.83 2.02 0 1.08.55 1.8.55.74 1.48 1.33l2 1.26q1.25.76 2.22 1.52.97.76 1.54 1.67.56.91.56 2.2 0 1.54-.7 2.55-.69 1-1.84 1.51-1.15.5-2.55.5-1.27 0-2.01-.28-.75-.29-1.27-.6-.53-.34-.82-.34-.24 0-.35.27-.1.26-.18.79H0q.05-.5.06-1.19l.02-1.79q.02-1.1.02-2.78h.55q.1 1.44.54 2.69.44 1.25 1.37 2 .92.76 2.46.76.79 0 1.5-.33.7-.32 1.16-1.03.46-.7.46-1.83 0-.99-.47-1.72t-1.31-1.37q-.84-.63-1.97-1.3-1.13-.7-2.11-1.42T.71 6.45Q.12 5.5.12 4.15q0-1.4.64-2.33Q1.39.89 2.42.45 3.46 0 4.63 0q1.2 0 1.83.28.62.28 1.1.61l.47.26q.18.08.35.08.24 0 .34-.27.11-.26.18-.79Z" vector-effect="non-scaling-stroke"/></svg>